<mxfile host="app.diagrams.net" agent="Mozilla/5.0 (Windows NT 10.0; Win64; x64) AppleWebKit/537.36 (KHTML, like Gecko) Chrome/131.0.0.0 Safari/537.36 Edg/131.0.0.0" version="26.0.11">
  <diagram name="Page-1" id="ZFNnpC1I1WESzWS_cr_y">
    <mxGraphModel dx="2066" dy="1117" grid="1" gridSize="10" guides="1" tooltips="1" connect="1" arrows="1" fold="1" page="1" pageScale="1" pageWidth="827" pageHeight="1169" math="0" shadow="0">
      <root>
        <mxCell id="0" />
        <mxCell id="1" parent="0" />
        <mxCell id="JTt-UDWd-rFEwzz_RLLZ-4" value="UAM Model" style="shape=image;verticalLabelPosition=bottom;labelBackgroundColor=default;verticalAlign=top;aspect=fixed;imageAspect=0;image=data:image/svg+xml,PHN2ZyB4bWxucz0iaHR0cDovL3d3dy53My5vcmcvMjAwMC9zdmciIHZpZXdCb3g9IjAgMCAyMDc5Ljk1IDQ1Ni4wNSIgaWQ9IkFzc2V0cyI+PGRlZnM+PHN0eWxlPi5jbHMtMXtmaWxsOiM3ZGYzZTF9PC9zdHlsZT48L2RlZnM+PHRpdGxlPjAzIExvZ29fVGVhbDwvdGl0bGU+PHBhdGggY2xhc3M9ImNscy0xIiBkPSJNMzAyLjksMTgwYTgwLjYyLDgwLjYyLDAsMCwwLDEzLjQ0LTEwLjM3Yy44LS43NywxLjU1LTEuNTQsMi4zMS0yLjMxYTgxLjg5LDgxLjg5LDAsMCwwLDcuOTItOS4zNyw2Mi4zNyw2Mi4zNywwLDAsMCw2LjI3LTEwLjc3LDQ4LjYsNDguNiwwLDAsMCw0LjM2LTE2LjRjMS40OS0xOS4zOS0xMC0zOC42Ny0zNS42Mi01NC4yMkwxOTguNDIsMTQsNzguMTYsMTI5LjIybC03OC4yOSw3NSwxMDguNiw2NS45YTExMS42LDExMS42LDAsMCwwLDU3Ljc2LDE2LjQyYzI0LjkyLDAsNDguOC04LjgsNjYuNDItMjUuNjksMTkuMTYtMTguMzYsMjUuNTItNDIuMTIsMTMuNy02MS44N2E0OS42OSw0OS42OSwwLDAsMC02LjgtOC44Nyw4OS43OCw4OS43OCwwLDAsMCwxOS4yOCwyLjE1SDI1OWE4NS4wOSw4NS4wOSwwLDAsMCwzMS01Ljc5QTgwLjg4LDgwLjg4LDAsMCwwLDMwMi45LDE4MFptLTEwMC41OSw1OS44Yy0xOS4zMiwxOC41MS01MC40LDIxLjI0LTc1LjcsNS45bC03NS4xMy00NS42LDY3LjQ0LTY0LjY1LDc2LjQyLDQ2LjM5QzIyMi44OCwxOTguNTcsMjIxLjM2LDIyMS42LDIwMi4zMSwyMzkuODRabTguOTQtODIuMjFMMTQwLjYsMTE0Ljc0LDIwNSw1M2w2OS4zNyw0Mi4xMWMyNS45NCwxNS43MywyOS4zMSwzNy4wNSwxMC41NSw1NUE2MC43MSw2MC43MSwwLDAsMSwyMTEuMjUsMTU3LjYzWm0yOS44NiwxOTBjLTE5LjU3LDE4Ljc1LTQ2LjE3LDI5LjA4LTc0Ljg4LDI5LjA4YTEyMy44NCwxMjMuODQsMCwwLDEtNjQuMTEtMTguMTlMLS4xMywyOTYuNTF2MjQuNjdsMTA4LjYsNjUuOTFhMTExLjYsMTExLjYsMCwwLDAsNTcuNzYsMTYuNDJjMjQuOTIsMCw0OC44LTguODEsNjYuNDItMjUuNjksMTIuODgtMTIuMzQsMjAtMjcuMTMsMTkuNjgtNDEuNDl2LTEuNzlBODcuODUsODcuODUsMCwwLDEsMjQxLjExLDM0Ny42N1ptMC0zOWMtMTkuNTcsMTguNzYtNDYuMTcsMjkuMDktNzQuODgsMjkuMDlhMTIzLjg0LDEyMy44NCwwLDAsMS02NC4xMS0xOC4xOUwtLjEzLDI1Ny41MlYyODIuMmwxMDguNiw2NS45MWExMTEuNTksMTExLjU5LDAsMCwwLDU3Ljc2LDE2LjQxYzI0LjkyLDAsNDguOC04LjgsNjYuNDItMjUuNjgsMTIuODgtMTIuMzUsMjAtMjcuMTMsMTkuNjgtNDEuNXYtMS43OUE4Ni44Niw4Ni44NiwwLDAsMSwyNDEuMTEsMzA4LjY4Wm0wLTM5Yy0xOS41NywxOC43Ni00Ni4xNywyOS4wOS03NC44OCwyOS4wOWExMjMuODQsMTIzLjg0LDAsMCwxLTY0LjExLTE4LjE5TC0uMTMsMjE4LjU0djI0LjY4bDEwOC42LDY1LjkxYTExMS41OSwxMTEuNTksMCwwLDAsNTcuNzYsMTYuNDFjMjQuOTIsMCw0OC44LTguOCw2Ni40Mi0yNS42OSwxMi44OC0xMi4zNCwyMC0yNy4xMiwxOS42OC00MS40OXYtMS44MkE4Ny4xNCw4Ny4xNCwwLDAsMSwyNDEuMTEsMjY5LjdabTgzLjY5LDI1Ljc0YTk0LjE2LDk0LjE2LDAsMCwxLTYwLjE5LDI1Ljg2aDBWMzQ4YTgxLjYsODEuNiwwLDAsMCw1MS43My0yMi4zN2MxNC0xMy4zOCwyMS4xNS0yOC4xMSwyMS00Mi42NHYtMi4yQTk1LjE0LDk1LjE0LDAsMCwxLDMyNC44LDI5NS40NFptLTgzLjY5LDkxLjIxYy0xOS41NywxOC43NS00Ni4xNywyOS4wOS03NC44OCwyOS4wOWExMjMuNzYsMTIzLjc2LDAsMCwxLTY0LjExLTE4LjJMLS4xMywzMzUuNDl2MjQuNjdsMTA4LjYsNjUuOTFhMTExLjYsMTExLjYsMCwwLDAsNTcuNzYsMTYuNDJjMjQuOTIsMCw0OC44LTguODEsNjYuNDItMjUuNjksMTIuODgtMTIuMzQsMjAtMjcuMTMsMTkuNjgtNDEuNDl2LTEuNzlBODcuMzUsODcuMzUsMCwwLDEsMjQxLjExLDM4Ni42NVptODUuNzUtMjEwLjIxYy0uNjguNjktMS4zNSwxLjM4LTIuMDYsMi4wNWE5OS4xOSw5OS4xOSwwLDAsMS0yMi4yMywxNS42OSw5NC41Myw5NC41MywwLDAsMS0yNi4yNCw4LjcxLDk3Ljg0LDk3Ljg0LDAsMCwxLTE0LjE2LDEuNTdjLjUsMS42MS45LDMuMjUsMS4yNSw0LjlhNTIuNyw1Mi43LDAsMCwxLDEuMTMsMTJWMjMxaC4wNUE4NC40OCw4NC40OCwwLDAsMCwyOTAsMjI1LjQ3YTgwLjgzLDgwLjgzLDAsMCwwLDI2LjM4LTE2LjgyYy44MS0uNzcsMS41MS0xLjU2LDIuMjctMi4zNGE4Miw4MiwwLDAsMCw3LjkyLTkuMzgsNjIuODUsNjIuODUsMCwwLDAsNi4yOS0xMC43OCw0OC41LDQ4LjUsMCwwLDAsNC4zMi0xNi40NGMuMDktMS4yMy4yLTIuNDcuMTktMy43di0yYy0uNzIsMS0xLjQ4LDIuMDYtMi4yNiwzLjA5QTk4LDk4LDAsMCwxLDMyNi44NiwxNzYuNDRabTAsNzcuOTJjLS42OC43LTEuMywxLjQxLTIsMi4xYTk0LjA5LDk0LjA5LDAsMCwxLTYwLjE5LDI1Ljg1aDBWMzA5aDBhODEuNjUsODEuNjUsMCwwLDAsNTEuNzMtMjIuMzcsNzMuNTEsNzMuNTEsMCwwLDAsMTYuNDgtMjIuNDksNDguNTYsNDguNTYsMCwwLDAsNC4zMi0xNi40NGMuMDktMS4yNC4yLTIuNDguMTktMy43MXYtMi4yYy0uNzQsMS4wOC0xLjQ3LDIuMTYtMi4yNywzLjIyQTk1LjgxLDk1LjgxLDAsMCwxLDMyNi44MiwyNTQuMzZabTAtMzljLS42OC43LTEuMywxLjQxLTIsMi4xYTkyLjIyLDkyLjIyLDAsMCwxLTEwLjYyLDguNjUsOTMuNTMsOTMuNTMsMCwwLDEtMTEuNjMsNyw5NS42Myw5NS42MywwLDAsMS0zNy45NCwxMC4xOGgtLjA1bDAsMjYuNjdoMGE4MS42Myw4MS42MywwLDAsMCw1MS43My0yMi4zN2MuODEtLjc3LDEuNTEtMS41NiwyLjI3LTIuMzRhODIsODIsMCwwLDAsNy45Mi05LjM4LDYzLjE2LDYzLjE2LDAsMCwwLDYuMjktMTAuNzcsNDguNTUsNDguNTUsMCwwLDAsNC4zMi0xNi40NWMuMDktMS4yMy4yLTIuNDcuMTktMy43di0yLjJjLS43NCwxLjA4LTEuNDcsMi4xNi0yLjI3LDMuMjJBOTguMTksOTguMTksMCwwLDEsMzI2LjgyLDIxNS4zOFptMjQxLTg4Ljg0cTcuOTQsMCwxNy4wOS4xN3QxOC4xMiwxYTEzOS4zLDEzOS4zLDAsMCwxLDE2Ljc0LDIuNTcsNDIuNzgsNDIuNzgsMCwwLDEsMTMuMyw1LjE0LDY0LjI3LDY0LjI3LDAsMCwxLDIwLjU0LDE5Ljg5UTY2MiwxNjgsNjYyLDE4Ni41NHEwLDE5LjU0LTkuNDksMzMuNzh0LTI3LjEsMjEuMDl2LjY4cTIyLjc4LDQuODIsMzQuODcsMjAuNTh0MTIuMDgsMzguNGE3Mi42Miw3Mi42MiwwLDAsMS00LjgzLDI2LjA2LDY1LjI5LDY1LjI5LDAsMCwxLTE0LjMzLDIyLjQ2LDcxLjU3LDcxLjU3LDAsMCwxLTIzLjQ3LDE1Ljc4cS0xNCw2LTMyLjI4LDZINDc4LjM4VjEyNi41NFptOSwxMDUuMjdxMjgsMCw0MC4yMS05Ljc4dDEyLjI2LTI5LjMxcTAtMTMtNC4xNC0yMC41OGEyOS40NywyOS40NywwLDAsMC0xMS40LTExLjY2QTQ1LDQ1LDAsMCwwLDU5NywxNTUuMTdhMTYxLjIsMTYxLjIsMCwwLDAtMjAuMTktMS4yaC02NS42djc3Ljg0Wm0xNi41NywxMTIuMTNxMjEuNzQsMCwzNC0xMS42NlQ2MzkuNTksMzAwcTAtMTItNC40OC0xOS44OGEzNC44NSwzNC44NSwwLDAsMC0xMS45MS0xMi41Miw1MC4xNCw1MC4xNCwwLDAsMC0xNy4wOS02LjUyLDEwNSwxMDUsMCwwLDAtMjAtMS44OEg1MTEuMTd2ODQuN1ptMjc0Ljc5LDI2Ljc0cS03LjYxLDQuNDUtMjEuMDYsNC40Ni0xMS40LDAtMTguMTItNi4zNHQtNi43NC0yMC43NWE3MC4xNyw3MC4xNywwLDAsMS0yOC4xMywyMC43NSw5Ny44Nyw5Ny44NywwLDAsMS01Ny42NSwzLjYsNTMuNTEsNTMuNTEsMCwwLDEtMTguODItOC41OEE0MS4xOSw0MS4xOSwwLDAsMSw3MDUsMzQ4LjU2cS00LjY1LTkuNDItNC42Ni0yMi44LDAtMTUuMDksNS4xOC0yNC42OWE0NC45Miw0NC45MiwwLDAsMSwxMy42NC0xNS42LDYyLjYzLDYyLjYzLDAsMCwxLDE5LjMzLTkuMDlxMTAuODgtMy4wOCwyMi4yNy01LjE0LDEyLjA4LTIuNCwyMy0zLjZhMTI4LDEyOCwwLDAsMCwxOS4xNi0zLjQzYzUuNTMtMS40OCw5Ljg5LTMuNjUsMTMuMTItNi41MXM0LjgzLTcsNC44My0xMi41MnEwLTkuNi0zLjYyLTE1LjQzYTI0Ljk0LDI0Ljk0LDAsMCwwLTkuMzItOC45MiwzOC4zOCwzOC4zOCwwLDAsMC0xMi43OC00LjExLDk2LjU0LDk2LjU0LDAsMCwwLTE0LTFxLTE4LjYzLDAtMzEuMDcsN1Q3MzYuNiwyNDkuMjlINzA3LjI2cS42OS0xNi40Niw2LjktMjcuNzdhNTIuMjEsNTIuMjEsMCwwLDEsMTYuNTctMTguMzUsNzAsNzAsMCwwLDEsMjMuNjUtMTAuMTFBMTI1LjUxLDEyNS41MSwwLDAsMSw3ODIuODYsMTkwYTE2OC42MywxNjguNjMsMCwwLDEsMjQsMS43Miw2My4yNiw2My4yNiwwLDAsMSwyMS41OCw3QTQxLjIzLDQxLjIzLDAsMCwxLDg0NCwyMTMuNTlxNS44Nyw5LjU3LDUuODcsMjV2OTFxMCwxMC4yNiwxLjIxLDE1LjA1dDguMTEsNC43OWEzNS41NywzNS41NywwLDAsMCw5LTEuMzdabS00Ny42NC05MC44N2MtMy42OSwyLjc0LTguNTIsNC43Mi0xNC41LDZzLTEyLjI2LDIuMjctMTguODIsMy4wNy0xMy4xNywxLjcxLTE5Ljg1LDIuNzNhNzMuNyw3My43LDAsMCwwLTE4LDQuOTQsMzIuNjIsMzIuNjIsMCwwLDAtMTIuOTQsOS43M3EtNSw2LjMyLTUsMTcuMjNhMjMuMzEsMjMuMzEsMCwwLDAsMi45NCwxMi4xMSwyNC4xMSwyNC4xMSwwLDAsMCw3LjU5LDgsMzIsMzIsMCwwLDAsMTAuODgsNC40NCw2MC45NCw2MC45NCwwLDAsMCwxMy4xMSwxLjM2cTE0LjUsMCwyNC44Ni0zLjkyYTUyLjQ5LDUyLjQ5LDAsMCwwLDE2LjkxLTkuOSwzOS4xLDM5LjEsMCwwLDAsOS42Ny0xMywzMi41MywzMi41MywwLDAsMCwzLjExLTEzLjE0Wk0xMDAyLjA3LDIyNXEtMTEuMDUtOS4yNS0yOS42OS05LjI2LTE1Ljg5LDAtMjYuNTgsNS44M0E0Ny4yOSw0Ny4yOSwwLDAsMCw5MjguNzEsMjM3YTY0LjY2LDY0LjY2LDAsMCwwLTkuMTUsMjIuMTJBMTE5LjgzLDExOS44MywwLDAsMCw5MTYuOCwyODVhOTguMjIsOTguMjIsMCwwLDAsMi45MywyNCw2NC4xOCw2NC4xOCwwLDAsMCw5LjE1LDIwLjc0LDQ2LjIsNDYuMiwwLDAsMCwxNi4yMywxNC41OHExMCw1LjQ5LDIzLjgyLDUuNDgsMjEuNzUsMCwzNC0xMS4zMXQxNS0zMS44OWgzMHEtNC44MywzMi45MS0yNC42OCw1MC43NXQtNTQsMTcuODNxLTIwLjM3LDAtMzYuMDctNi41MkE2OS44Niw2OS44NiwwLDAsMSw5MDcsMzUwLjExYTc5LjkyLDc5LjkyLDAsMCwxLTE1Ljg4LTI4LjYzQTExOC42NCwxMTguNjQsMCwwLDEsODg1LjczLDI4NWExMjkuNDEsMTI5LjQxLDAsMCwxLDUuMTgtMzcuMjEsODUuNjMsODUuNjMsMCwwLDEsMTUuNzEtMzAuMTdBNzMuNDYsNzMuNDYsMCwwLDEsOTMzLDE5Ny4zNVE5NDguOTEsMTkwLDk3MCwxOTBhMTA4LjU0LDEwOC41NCwwLDAsMSwyOC40OCwzLjYsNjkuNTksNjkuNTksMCwwLDEsMjMuNDgsMTEuMTUsNjEsNjEsMCwwLDEsMTYuNzQsMTlxNi41NSwxMS40OSw4LjI5LDI3LjI2aC0zMC4zOFExMDEzLjExLDIzNC4yMSwxMDAyLjA3LDIyNVptMTA5Ljc3LTk4LjQxdjE0NWw4MS40Ny03Ny40OWgzOS4zNmwtNzAuNzcsNjQuNDYsNzUuOTUsMTEyLjgyaC0zNy4yOWwtNjEuMS05Mi41OS0yNy42MiwyNS4zOHY2Ny4yMUgxMDgyLjVWMTI2LjU0Wm0xNzAuNTQsMjA1LjIyYTMxLjA3LDMxLjA3LDAsMCwwLDEwLjg3LDEwLjYzLDQ5LDQ5LDAsMCwwLDE1LjE5LDUuNjYsODcuMDYsODcuMDYsMCwwLDAsMTcuNDQsMS43MSwxMDkuMTgsMTA5LjE4LDAsMCwwLDE0LjUtMSw1My4yMiw1My4yMiwwLDAsMCwxNC0zLjc4LDI2LjI3LDI2LjI3LDAsMCwwLDEwLjUzLThxNC4xNC01LjMyLDQuMTQtMTMuNTUsMC0xMS4zMS04LjYzLTE3LjE0YTczLjY5LDczLjY5LDAsMCwwLTIxLjU4LTkuNDNxLTEyLjk0LTMuNi0yOC4xMy02LjUyYTE0NiwxNDYsMCwwLDEtMjguMTQtOC4yM0E1OC4xNiw1OC4xNiwwLDAsMSwxMjYxLDI2Ny4xM3EtOC42NC05LjYtOC42My0yNi43NSwwLTEzLjM4LDYtMjNhNDkuMjYsNDkuMjYsMCwwLDEsMTUuNTMtMTUuNjEsNzEuNzYsNzEuNzYsMCwwLDEsMjEuNC04LjkxQTk5LjQxLDk5LjQxLDAsMCwxLDEzMTksMTkwYTE0MS4zMSwxNDEuMzEsMCwwLDEsMjgsMi41OCw2NC44NSw2NC44NSwwLDAsMSwyMi42Miw4LjkxLDQ2LjE2LDQ2LjE2LDAsMCwxLDE1LjcsMTcuMTVxNS44NywxMC44LDYuOTEsMjYuOTFoLTI5LjM1cS0uNjktOC41Ny00LjQ4LTE0LjIzYTI5LjM2LDI5LjM2LDAsMCwwLTkuNjctOS4wOCw0NC4xNiw0NC4xNiwwLDAsMC0xMi45NC01LDY3LjY4LDY3LjY4LDAsMCwwLTE0LjMzLTEuNTQsODcuMjksODcuMjksMCwwLDAtMTMuMjksMSw0NS4yOCw0NS4yOCwwLDAsMC0xMi4yNiwzLjYsMjQuNDksMjQuNDksMCwwLDAtOSw2Ljg2cS0zLjQ2LDQuMjktMy40NiwxMS4xNGExNi4zMiwxNi4zMiwwLDAsMCw1LjM2LDEyLjUyLDQyLjc1LDQyLjc1LDAsMCwwLDEzLjYzLDguMjMsMTIwLDEyMCwwLDAsMCwxOC42NCw1LjQ4cTEwLjM3LDIuMjQsMjAuNzIsNC42MywxMSwyLjQsMjEuNTcsNS44M0E3MC43NCw3MC43NCwwLDAsMSwxMzgyLDI4NC4xYTQ0LjU1LDQ0LjU1LDAsMCwxLDEzLjEyLDE0LjIzcTUsOC41OCw1LDIxLjI2LDAsMTYuMTMtNi43MywyNi43NWE1Mi41LDUyLjUsMCwwLDEtMTcuNjEsMTcuMTQsNzMuODksNzMuODksMCwwLDEtMjQuNTEsOS4wOSwxNDYuMywxNDYuMywwLDAsMS0yNy4xLDIuNTcsMTI2LjI0LDEyNi4yNCwwLDAsMS0yOC4zMS0zLjA5QTY5LjU2LDY5LjU2LDAsMCwxLDEyNzIsMzYxLjk0YTUxLjc0LDUxLjc0LDAsMCwxLTE2LjU3LTE4LjUycS02LjIxLTExLjQ5LTYuOS0yNy45NWgyOS4zNEEzMi42NSwzMi42NSwwLDAsMCwxMjgyLjM4LDMzMS43NlptMjI2LjQ2LTEzNy42N3YyNS43MmgtMzUuNTZWMzI5Ljg4YTMxLjM3LDMxLjM3LDAsMCwwLC44Nyw4LjIzLDguNDIsOC40MiwwLDAsMCwzLjI4LDQuOCwxNC42MSwxNC42MSwwLDAsMCw2LjczLDIuMjMsOTkuMTksOTkuMTksMCwwLDAsMTEuMjIuNTFoMTMuNDZ2MjUuNzJIMTQ4Ni40YTEwNS44LDEwNS44LDAsMCwxLTE5LjUtMS41NSwyOC42NSwyOC42NSwwLDAsMS0xMy4xMi01LjY1LDI0LjA5LDI0LjA5LDAsMCwxLTcuNDItMTEuNjZxLTIuNDMtNy41NC0yLjQyLTE5Ljg5VjIxOS44MWgtMzAuMzhWMTk0LjA5aDMwLjM4VjE0MC45NGgyOS4zNHY1My4xNVpNMTY5OS40LDM3MC42OHEtNy42MSw0LjQ1LTIxLjA2LDQuNDYtMTEuNCwwLTE4LjEyLTYuMzR0LTYuNzQtMjAuNzVhNzAuMTcsNzAuMTcsMCwwLDEtMjguMTMsMjAuNzUsOTcuODcsOTcuODcsMCwwLDEtNTcuNjUsMy42LDUzLjUxLDUzLjUxLDAsMCwxLTE4LjgyLTguNTgsNDEuMTksNDEuMTksMCwwLDEtMTIuNi0xNS4yNnEtNC42NS05LjQyLTQuNjYtMjIuOCwwLTE1LjA5LDUuMTgtMjQuNjlhNDQuOTIsNDQuOTIsMCwwLDEsMTMuNjQtMTUuNiw2Mi42Myw2Mi42MywwLDAsMSwxOS4zMy05LjA5cTEwLjg4LTMuMDgsMjIuMjctNS4xNCwxMi4wNy0yLjQsMjMtMy42YTEyOCwxMjgsMCwwLDAsMTkuMTYtMy40M2M1LjUzLTEuNDgsOS44OS0zLjY1LDEzLjEyLTYuNTFzNC44My03LDQuODMtMTIuNTJxMC05LjYtMy42Mi0xNS40M2EyNC45NCwyNC45NCwwLDAsMC05LjMyLTguOTIsMzguMzgsMzguMzgsMCwwLDAtMTIuNzgtNC4xMSw5Ni41NCw5Ni41NCwwLDAsMC0xNC0xcS0xOC42MywwLTMxLjA3LDd0LTEzLjQ2LDI2LjU3aC0yOS4zNHEuNjctMTYuNDYsNi45LTI3Ljc3QTUyLjIxLDUyLjIxLDAsMCwxLDE1NjIsMjAzLjE3YTcwLDcwLDAsMCwxLDIzLjY1LTEwLjExLDEyNS41MSwxMjUuNTEsMCwwLDEsMjguNDgtMy4wOSwxNjguNjMsMTY4LjYzLDAsMCwxLDI0LDEuNzIsNjMuMjYsNjMuMjYsMCwwLDEsMjEuNTgsNyw0MS4yMyw0MS4yMywwLDAsMSwxNS41MywxNC44OXE1Ljg3LDkuNTcsNS44NywyNXY5MXEwLDEwLjI2LDEuMjEsMTUuMDV0OC4xMSw0Ljc5YTM1LjU3LDM1LjU3LDAsMCwwLDktMS4zN1ptLTQ3LjY0LTkwLjg3Yy0zLjY5LDIuNzQtOC41Miw0LjcyLTE0LjUsNnMtMTIuMjYsMi4yNy0xOC44MiwzLjA3LTEzLjE3LDEuNzEtMTkuODUsMi43M2E3My43LDczLjcsMCwwLDAtMTcuOTUsNC45NCwzMi42MiwzMi42MiwwLDAsMC0xMi45NCw5LjczcS01LDYuMzItNSwxNy4yM2EyMy4zMSwyMy4zMSwwLDAsMCwyLjk0LDEyLjExLDI0LjExLDI0LjExLDAsMCwwLDcuNTksOCwzMiwzMiwwLDAsMCwxMC44OCw0LjQ0LDYwLjk0LDYwLjk0LDAsMCwwLDEzLjExLDEuMzZxMTQuNTEsMCwyNC44Ni0zLjkyYTUyLjQ5LDUyLjQ5LDAsMCwwLDE2LjkxLTkuOSwzOS4xLDM5LjEsMCwwLDAsOS42Ny0xMywzMi41MywzMi41MywwLDAsMCwzLjExLTEzLjE0Wm0yMDguODUsMTQxLjYycS0yMCwyMS42LTYyLjgzLDIxLjZhMTIyLjExLDEyMi4xMSwwLDAsMS0yNS4zNy0yLjc0LDc4LDc4LDAsMCwxLTIzLjQ4LTguOTIsNTQuNDEsNTQuNDEsMCwwLDEtMTcuNDMtMTYuMTFxLTYuOTEtMTAtNy42LTI0LjM1aDI5LjM1YTIxLjQ3LDIxLjQ3LDAsMCwwLDUsMTMuMzgsMzYuNjcsMzYuNjcsMCwwLDAsMTEuNCw4LjkxLDU1LjUyLDU1LjUyLDAsMCwwLDE0LjY3LDUsNzkuNTEsNzkuNTEsMCwwLDAsMTUuMTksMS41NXExNC40OSwwLDI0LjUxLTVBNDYsNDYsMCwwLDAsMTg0MC41OSw0MDFhNTYuNTMsNTYuNTMsMCwwLDAsOS40OS0yMS4wOSwxMTcuNDYsMTE3LjQ2LDAsMCwwLDIuOTQtMjcuMDlWMzQxLjE5aC0uN3EtNy41OSwxNi40Ni0yMywyNC4xOGE3MS44LDcxLjgsMCwwLDEtMzIuNjMsNy43MXEtMjAsMC0zNC44Ni03LjJBNzIuODgsNzIuODgsMCwwLDEsMTczNywzNDYuNTFhODIuMTMsODIuMTMsMCwwLDEtMTUtMjguNDYsMTE2LjYyLDExNi42MiwwLDAsMS01LTM0LjQ3LDEzMy45MiwxMzMuOTIsMCwwLDEsNC4xNC0zMi40QTg4LjE3LDg4LjE3LDAsMCwxLDE3MzUsMjIxYTc1LjQ5LDc1LjQ5LDAsMCwxLDI1LjU1LTIyLjI5cTE1Ljg3LTguNzUsMzktOC43NWE2Ni4yMSw2Ni4yMSwwLDAsMSwzMS4wNyw3LjM4LDUyLjEzLDUyLjEzLDAsMCwxLDIyLjA5LDIyLjExaC4zNVYxOTQuMDloMjcuNjFWMzU2LjI4UTE4ODAuNjMsMzk5LjgzLDE4NjAuNjEsNDIxLjQzWm0tMzcuNDYtNzkuNzJhNDcuOTQsNDcuOTQsMCwwLDAsMTYuNC0xNS43OCw3MS44OSw3MS44OSwwLDAsMCw5LjE1LTIyLjExLDEwNi43NywxMDYuNzcsMCwwLDAsMi45My0yNC42OSw5Ni43MSw5Ni43MSwwLDAsMC0yLjc2LTIzLDY0LDY0LDAsMCwwLTguOC0yMC40LDQ1Ljc2LDQ1Ljc2LDAsMCwwLTE1LjcxLTE0LjU3cS05LjY2LTUuNDktMjMuNDctNS40OS0xNC4xNiwwLTI0LjE3LDUuMzJhNDYuNzcsNDYuNzcsMCwwLDAtMTYuNCwxNC4yMyw2MC4xNCw2MC4xNCwwLDAsMC05LjMyLDIwLjU3LDk5LjY5LDk5LjY5LDAsMCwwLTIuOTMsMjQuMzUsMTIwLjYzLDEyMC42MywwLDAsMCwyLjQyLDI0LDY3LjUsNjcuNSwwLDAsMCw4LjI4LDIxLjc3LDQ2LjM3LDQ2LjM3LDAsMCwwLDE1LjU0LDE1Ljc4cTkuNjYsNiwyNC4xNiw2VDE4MjMuMTUsMzQxLjcxWm0yMjgsMTguMzRxLTIwLDE1LjA5LTUwLjQxLDE1LjA5LTIxLjQsMC0zNy4xMS02Ljg2YTczLjE2LDczLjE2LDAsMCwxLTI2LjQxLTE5LjIsODEuNTIsODEuNTIsMCwwLDEtMTYtMjkuNDksMTQxLjEyLDE0MS4xMiwwLDAsMS02LTM3LjM4LDEwNi4xLDEwNi4xLDAsMCwxLDYuMjEtMzdBODguNTYsODguNTYsMCwwLDEsMTkzOC44LDIxNmE3OS4wOSw3OS4wOSwwLDAsMSwyNi41OC0xOS4yQTgxLjY2LDgxLjY2LDAsMCwxLDE5OTksMTkwcTIzLjgyLDAsMzkuNTMsOS43OGE3OCw3OCwwLDAsMSwyNS4yLDI0Ljg2LDk4LjE4LDk4LjE4LDAsMCwxLDEzLjEyLDMyLjkxLDE0MC42LDE0MC42LDAsMCwxLDIuOTMsMzRoLTEzMy42YTcwLDcwLDAsMCwwLDIuNzYsMjIuMTIsNDkuOSw0OS45LDAsMCwwLDEwLDE4LjUxQTQ5LjEsNDkuMSwwLDAsMCwxOTc2LjYsMzQ1cTEwLjcsNC44MiwyNS4yLDQuOCwxOC42NSwwLDMwLjU1LTguNTd0MTUuNzEtMjYuMDZoMjlRMjA3MS4xOCwzNDUsMjA1MS4xNywzNjAuMDVabS03LjA4LTExMy44NGE1MCw1MCwwLDAsMC0xMC43LTE2LDUzLjEsNTMuMSwwLDAsMC01Ni42Mi0xMC42Myw0Ny40OCw0Ny40OCwwLDAsMC0xNS43MSwxMC44MSw1MS42OSw1MS42OSwwLDAsMC0xMC4zNSwxNS45NCw2MC4xOCw2MC4xOCwwLDAsMC00LjQ5LDE5LjM3aDEwMi41M0E1OS40Nyw1OS40NywwLDAsMCwyMDQ0LjA5LDI0Ni4yMVpNMzAyLjksMTgwYTgwLjYyLDgwLjYyLDAsMCwwLDEzLjQ0LTEwLjM3Yy44LS43NywxLjU1LTEuNTQsMi4zMS0yLjMxYTgxLjg5LDgxLjg5LDAsMCwwLDcuOTItOS4zNyw2Mi4zNyw2Mi4zNywwLDAsMCw2LjI3LTEwLjc3LDQ4LjYsNDguNiwwLDAsMCw0LjM2LTE2LjRjMS40OS0xOS4zOS0xMC0zOC42Ny0zNS42Mi01NC4yMkwxOTguNDIsMTQsNzguMTYsMTI5LjIybC03OC4yOSw3NSwxMDguNiw2NS45YTExMS42LDExMS42LDAsMCwwLDU3Ljc2LDE2LjQyYzI0LjkyLDAsNDguOC04LjgsNjYuNDItMjUuNjksMTkuMTYtMTguMzYsMjUuNTItNDIuMTIsMTMuNy02MS44N2E0OS42OSw0OS42OSwwLDAsMC02LjgtOC44Nyw4OS43OCw4OS43OCwwLDAsMCwxOS4yOCwyLjE1SDI1OWE4NS4wOSw4NS4wOSwwLDAsMCwzMS01Ljc5QTgwLjg4LDgwLjg4LDAsMCwwLDMwMi45LDE4MFptLTEwMC41OSw1OS44Yy0xOS4zMiwxOC41MS01MC40LDIxLjI0LTc1LjcsNS45bC03NS4xMy00NS42LDY3LjQ0LTY0LjY1LDc2LjQyLDQ2LjM5QzIyMi44OCwxOTguNTcsMjIxLjM2LDIyMS42LDIwMi4zMSwyMzkuODRabTguOTQtODIuMjFMMTQwLjYsMTE0Ljc0LDIwNSw1M2w2OS4zNyw0Mi4xMWMyNS45NCwxNS43MywyOS4zMSwzNy4wNSwxMC41NSw1NUE2MC43MSw2MC43MSwwLDAsMSwyMTEuMjUsMTU3LjYzWm0yOS44NiwxOTBjLTE5LjU3LDE4Ljc1LTQ2LjE3LDI5LjA4LTc0Ljg4LDI5LjA4YTEyMy44NCwxMjMuODQsMCwwLDEtNjQuMTEtMTguMTlMLS4xMywyOTYuNTF2MjQuNjdsMTA4LjYsNjUuOTFhMTExLjYsMTExLjYsMCwwLDAsNTcuNzYsMTYuNDJjMjQuOTIsMCw0OC44LTguODEsNjYuNDItMjUuNjksMTIuODgtMTIuMzQsMjAtMjcuMTMsMTkuNjgtNDEuNDl2LTEuNzlBODcuODUsODcuODUsMCwwLDEsMjQxLjExLDM0Ny42N1ptMC0zOWMtMTkuNTcsMTguNzYtNDYuMTcsMjkuMDktNzQuODgsMjkuMDlhMTIzLjg0LDEyMy44NCwwLDAsMS02NC4xMS0xOC4xOUwtLjEzLDI1Ny41MlYyODIuMmwxMDguNiw2NS45MWExMTEuNTksMTExLjU5LDAsMCwwLDU3Ljc2LDE2LjQxYzI0LjkyLDAsNDguOC04LjgsNjYuNDItMjUuNjgsMTIuODgtMTIuMzUsMjAtMjcuMTMsMTkuNjgtNDEuNXYtMS43OUE4Ni44Niw4Ni44NiwwLDAsMSwyNDEuMTEsMzA4LjY4Wm0wLTM5Yy0xOS41NywxOC43Ni00Ni4xNywyOS4wOS03NC44OCwyOS4wOWExMjMuODQsMTIzLjg0LDAsMCwxLTY0LjExLTE4LjE5TC0uMTMsMjE4LjU0djI0LjY4bDEwOC42LDY1LjkxYTExMS41OSwxMTEuNTksMCwwLDAsNTcuNzYsMTYuNDFjMjQuOTIsMCw0OC44LTguOCw2Ni40Mi0yNS42OSwxMi44OC0xMi4zNCwyMC0yNy4xMiwxOS42OC00MS40OXYtMS44MkE4Ny4xNCw4Ny4xNCwwLDAsMSwyNDEuMTEsMjY5LjdabTgzLjY5LDI1Ljc0YTk0LjE2LDk0LjE2LDAsMCwxLTYwLjE5LDI1Ljg2aDBWMzQ4YTgxLjYsODEuNiwwLDAsMCw1MS43My0yMi4zN2MxNC0xMy4zOCwyMS4xNS0yOC4xMSwyMS00Mi42NHYtMi4yQTk1LjE0LDk1LjE0LDAsMCwxLDMyNC44LDI5NS40NFptLTgzLjY5LDkxLjIxYy0xOS41NywxOC43NS00Ni4xNywyOS4wOS03NC44OCwyOS4wOWExMjMuNzYsMTIzLjc2LDAsMCwxLTY0LjExLTE4LjJMLS4xMywzMzUuNDl2MjQuNjdsMTA4LjYsNjUuOTFhMTExLjYsMTExLjYsMCwwLDAsNTcuNzYsMTYuNDJjMjQuOTIsMCw0OC44LTguODEsNjYuNDItMjUuNjksMTIuODgtMTIuMzQsMjAtMjcuMTMsMTkuNjgtNDEuNDl2LTEuNzlBODcuMzUsODcuMzUsMCwwLDEsMjQxLjExLDM4Ni42NVptODUuNzUtMjEwLjIxYy0uNjguNjktMS4zNSwxLjM4LTIuMDYsMi4wNWE5OS4xOSw5OS4xOSwwLDAsMS0yMi4yMywxNS42OSw5NC41Myw5NC41MywwLDAsMS0yNi4yNCw4LjcxLDk3Ljg0LDk3Ljg0LDAsMCwxLTE0LjE2LDEuNTdjLjUsMS42MS45LDMuMjUsMS4yNSw0LjlhNTIuNyw1Mi43LDAsMCwxLDEuMTMsMTJWMjMxaC4wNUE4NC40OCw4NC40OCwwLDAsMCwyOTAsMjI1LjQ3YTgwLjgzLDgwLjgzLDAsMCwwLDI2LjM4LTE2LjgyYy44MS0uNzcsMS41MS0xLjU2LDIuMjctMi4zNGE4Miw4MiwwLDAsMCw3LjkyLTkuMzgsNjIuODUsNjIuODUsMCwwLDAsNi4yOS0xMC43OCw0OC41LDQ4LjUsMCwwLDAsNC4zMi0xNi40NGMuMDktMS4yMy4yLTIuNDcuMTktMy43di0yYy0uNzIsMS0xLjQ4LDIuMDYtMi4yNiwzLjA5QTk4LDk4LDAsMCwxLDMyNi44NiwxNzYuNDRabTAsNzcuOTJjLS42OC43LTEuMywxLjQxLTIsMi4xYTk0LjA5LDk0LjA5LDAsMCwxLTYwLjE5LDI1Ljg1aDBWMzA5aDBhODEuNjUsODEuNjUsMCwwLDAsNTEuNzMtMjIuMzcsNzMuNTEsNzMuNTEsMCwwLDAsMTYuNDgtMjIuNDksNDguNTYsNDguNTYsMCwwLDAsNC4zMi0xNi40NGMuMDktMS4yNC4yLTIuNDguMTktMy43MXYtMi4yYy0uNzQsMS4wOC0xLjQ3LDIuMTYtMi4yNywzLjIyQTk1LjgxLDk1LjgxLDAsMCwxLDMyNi44MiwyNTQuMzZabTAtMzljLS42OC43LTEuMywxLjQxLTIsMi4xYTkyLjIyLDkyLjIyLDAsMCwxLTEwLjYyLDguNjUsOTMuNTMsOTMuNTMsMCwwLDEtMTEuNjMsNyw5NS42Myw5NS42MywwLDAsMS0zNy45NCwxMC4xOGgtLjA1bDAsMjYuNjdoMGE4MS42Myw4MS42MywwLDAsMCw1MS43My0yMi4zN2MuODEtLjc3LDEuNTEtMS41NiwyLjI3LTIuMzRhODIsODIsMCwwLDAsNy45Mi05LjM4LDYzLjE2LDYzLjE2LDAsMCwwLDYuMjktMTAuNzcsNDguNTUsNDguNTUsMCwwLDAsNC4zMi0xNi40NWMuMDktMS4yMy4yLTIuNDcuMTktMy43di0yLjJjLS43NCwxLjA4LTEuNDcsMi4xNi0yLjI3LDMuMjJBOTguMTksOTguMTksMCwwLDEsMzI2LjgyLDIxNS4zOFoiLz48L3N2Zz4=;imageBackground=#242526;fontStyle=1;fontSize=20;" parent="1" vertex="1">
          <mxGeometry x="322" y="40" width="182.5" height="40" as="geometry" />
        </mxCell>
        <mxCell id="JTt-UDWd-rFEwzz_RLLZ-22" value="" style="edgeStyle=orthogonalEdgeStyle;rounded=0;orthogonalLoop=1;jettySize=auto;html=1;" parent="1" source="JTt-UDWd-rFEwzz_RLLZ-9" target="JTt-UDWd-rFEwzz_RLLZ-20" edge="1">
          <mxGeometry relative="1" as="geometry" />
        </mxCell>
        <mxCell id="JTt-UDWd-rFEwzz_RLLZ-9" value="user@kiwibank.co.nz" style="image;html=1;points=[];align=center;fontSize=12;image=img/lib/azure2/azure_stack/User_Subscriptions.svg;labelBackgroundColor=none;" parent="1" vertex="1">
          <mxGeometry x="152" y="190" width="50" height="50" as="geometry" />
        </mxCell>
        <mxCell id="JTt-UDWd-rFEwzz_RLLZ-33" value="" style="edgeStyle=orthogonalEdgeStyle;rounded=0;orthogonalLoop=1;jettySize=auto;html=1;" parent="1" source="JTt-UDWd-rFEwzz_RLLZ-10" target="JTt-UDWd-rFEwzz_RLLZ-28" edge="1">
          <mxGeometry relative="1" as="geometry" />
        </mxCell>
        <mxCell id="JTt-UDWd-rFEwzz_RLLZ-10" value="Catalog" style="sketch=0;pointerEvents=1;shadow=0;dashed=0;html=1;strokeColor=none;fillColor=#d54848;labelPosition=center;verticalLabelPosition=bottom;verticalAlign=top;outlineConnect=0;align=center;shape=mxgraph.office.concepts.book_journal;" parent="1" vertex="1">
          <mxGeometry x="500" y="190" width="50" height="50" as="geometry" />
        </mxCell>
        <mxCell id="JTt-UDWd-rFEwzz_RLLZ-19" style="edgeStyle=orthogonalEdgeStyle;rounded=0;orthogonalLoop=1;jettySize=auto;html=1;" parent="1" source="JTt-UDWd-rFEwzz_RLLZ-13" edge="1">
          <mxGeometry relative="1" as="geometry">
            <mxPoint x="522.5" y="410" as="targetPoint" />
          </mxGeometry>
        </mxCell>
        <mxCell id="JTt-UDWd-rFEwzz_RLLZ-13" value="Azure AD" style="image;sketch=0;aspect=fixed;html=1;points=[];align=center;fontSize=12;image=img/lib/mscae/Azure_DevOps.svg;labelBackgroundColor=none;" parent="1" vertex="1">
          <mxGeometry x="497.5" y="450" width="50" height="50" as="geometry" />
        </mxCell>
        <mxCell id="JTt-UDWd-rFEwzz_RLLZ-26" value="" style="edgeStyle=orthogonalEdgeStyle;rounded=0;orthogonalLoop=1;jettySize=auto;html=1;" parent="1" source="JTt-UDWd-rFEwzz_RLLZ-20" target="JTt-UDWd-rFEwzz_RLLZ-25" edge="1">
          <mxGeometry relative="1" as="geometry" />
        </mxCell>
        <mxCell id="JTt-UDWd-rFEwzz_RLLZ-20" value="Azure SSO" style="image;aspect=fixed;html=1;points=[];align=center;fontSize=12;image=img/lib/azure2/app_services/App_Services.svg;labelBackgroundColor=none;" parent="1" vertex="1">
          <mxGeometry x="272" y="190" width="50" height="50" as="geometry" />
        </mxCell>
        <mxCell id="JTt-UDWd-rFEwzz_RLLZ-23" value="User signs in" style="text;html=1;align=center;verticalAlign=middle;whiteSpace=wrap;rounded=0;" parent="1" vertex="1">
          <mxGeometry x="189" y="150" width="95" height="30" as="geometry" />
        </mxCell>
        <mxCell id="JTt-UDWd-rFEwzz_RLLZ-27" value="" style="edgeStyle=orthogonalEdgeStyle;rounded=0;orthogonalLoop=1;jettySize=auto;html=1;" parent="1" source="JTt-UDWd-rFEwzz_RLLZ-25" target="JTt-UDWd-rFEwzz_RLLZ-10" edge="1">
          <mxGeometry relative="1" as="geometry" />
        </mxCell>
        <mxCell id="JTt-UDWd-rFEwzz_RLLZ-25" value="Auth.ts code" style="sketch=0;outlineConnect=0;fontColor=#232F3E;gradientColor=none;fillColor=#232F3D;strokeColor=none;dashed=0;verticalLabelPosition=bottom;verticalAlign=top;align=center;html=1;fontSize=12;fontStyle=0;pointerEvents=1;shape=mxgraph.aws4.source_code;" parent="1" vertex="1">
          <mxGeometry x="389" y="190" width="50" height="50" as="geometry" />
        </mxCell>
        <mxCell id="JTt-UDWd-rFEwzz_RLLZ-28" value="User signed in" style="image;html=1;points=[];align=center;fontSize=12;image=img/lib/azure2/app_services/App_Service_Domains.svg;labelBackgroundColor=none;" parent="1" vertex="1">
          <mxGeometry x="630" y="190" width="50" height="50" as="geometry" />
        </mxCell>
        <mxCell id="JTt-UDWd-rFEwzz_RLLZ-29" value="SSO success" style="text;html=1;align=center;verticalAlign=middle;whiteSpace=wrap;rounded=0;" parent="1" vertex="1">
          <mxGeometry x="300" y="270" width="95" height="30" as="geometry" />
        </mxCell>
        <mxCell id="JTt-UDWd-rFEwzz_RLLZ-30" value="Code checks if user exists in catalog" style="text;html=1;align=center;verticalAlign=middle;whiteSpace=wrap;rounded=0;" parent="1" vertex="1">
          <mxGeometry x="420" y="150" width="110" height="30" as="geometry" />
        </mxCell>
        <mxCell id="JTt-UDWd-rFEwzz_RLLZ-32" value="msgraph API" style="text;html=1;align=center;verticalAlign=middle;whiteSpace=wrap;rounded=0;" parent="1" vertex="1">
          <mxGeometry x="402.5" y="390" width="95" height="30" as="geometry" />
        </mxCell>
        <mxCell id="szq-S48U5ppM_MO_DEo5-4" style="edgeStyle=orthogonalEdgeStyle;rounded=0;orthogonalLoop=1;jettySize=auto;html=1;fontStyle=1" edge="1" parent="1" source="xs0XM6eP5Kc3nPQkDnIF-1">
          <mxGeometry relative="1" as="geometry">
            <mxPoint x="523" y="270" as="targetPoint" />
          </mxGeometry>
        </mxCell>
        <mxCell id="xs0XM6eP5Kc3nPQkDnIF-1" value="" style="image;sketch=0;aspect=fixed;html=1;points=[];align=center;fontSize=12;image=img/lib/mscae/Resource_Graph_Explorer.svg;" parent="1" vertex="1">
          <mxGeometry x="498.5" y="360" width="49" height="50" as="geometry" />
        </mxCell>
      </root>
    </mxGraphModel>
  </diagram>
</mxfile>
